<?xml version="1.0" standalone="no"?>
<!DOCTYPE svg PUBLIC "-//W3C//DTD SVG 1.1//EN" "http://www.w3.org/Graphics/SVG/1.1/DTD/svg11.dtd"><svg t="1545293171877" class="icon" style="" viewBox="0 0 1024 1024" version="1.1" xmlns="http://www.w3.org/2000/svg" p-id="1576" xmlns:xlink="http://www.w3.org/1999/xlink" width="200" height="200"><defs><style type="text/css"></style></defs>
<path d="M510.171429 96.914286C283.428571 96.914286 98.742857 281.6 98.742857 508.342857s184.685714 411.428571 411.428572 411.428572 411.428571-184.685714 411.428571-411.428572S736.914286 96.914286 510.171429 96.914286zM288.914286 287.085714h155.428571v32.914286h-122.514286v122.514286h-32.914285V287.085714z m0 287.085715h32.914285v122.514285h122.514286v32.914286h-155.428571v-155.428571z m287.085714 122.514285h122.514286v-122.514285H731.428571v155.428571h-155.428571v-32.914286z m0-409.6H731.428571v155.428572h-32.914285v-122.514286h-122.514286V287.085714zM354.742857 490.057143h309.028572v36.571428H354.742857v-36.571428z" fill="#74B5AA" p-id="1577"></path></svg>